<?xml version="1.0" encoding="UTF-8"?>
<svg version="1.1" xmlns="http://www.w3.org/2000/svg" width="3755" height="810">
<path d="M0 0 C0.99 0.33 1.98 0.66 3 1 C3.92145231 3.50308562 4.62880345 5.87413567 5.27392578 8.45141602 C5.48145981 9.23752667 5.68899384 10.02363733 5.90281677 10.83356953 C6.59577835 13.47067321 7.27039758 16.11213123 7.9453125 18.75390625 C8.43211063 20.62042699 8.92007974 22.48664268 9.40914917 24.35256958 C10.72314602 29.37795872 12.02182149 34.40719434 13.31793213 39.43722153 C14.65830599 44.62766674 16.01304068 49.81435492 17.3671875 55.0012207 C19.00424234 61.27493528 20.64017723 67.54892938 22.26983643 73.8245697 C26.93106347 91.77374857 31.67276942 109.70078637 36.44905853 127.61964035 C37.3580408 131.03134171 38.26521095 134.44352459 39.17236328 137.85571289 C40.78051333 143.90409162 42.38970231 149.95219271 44 156 C40.03641543 157.32119486 37.22315504 156.21558337 33.33984375 155.12890625 C32.59416641 154.9277269 31.84848907 154.72654755 31.08021545 154.51927185 C28.69708727 153.8748928 26.31725727 153.21920832 23.9375 152.5625 C21.55366972 151.9114045 19.1692252 151.2626752 16.78407288 150.61643982 C15.29964585 150.21352864 13.81608303 149.80741749 12.33348083 149.39784241 C8.719714 148.36086094 8.719714 148.36086094 5 148 C4.79242569 148.7132695 4.58485138 149.426539 4.37098694 150.16142273 C-6.41084068 187.20572721 -17.23087539 224.23855356 -28.125 261.25 C-28.38315113 262.12705849 -28.64130226 263.00411697 -28.90727615 263.90775299 C-29.69802166 266.59426649 -30.48877976 269.28077629 -31.27954102 271.96728516 C-32.34783163 275.59667597 -33.41610673 279.22607136 -34.484375 282.85546875 C-34.75062117 283.75999535 -35.01686733 284.66452194 -35.29118156 285.59645844 C-41.66415499 307.24837183 -48.02053403 328.90514905 -54.375 350.5625 C-54.94052921 352.48986881 -55.50606062 354.41723697 -56.07159424 356.34460449 C-58.34325231 364.08658899 -60.61483552 371.82859545 -62.88626099 379.57064819 C-66.84281937 393.05639697 -70.80004996 406.54194832 -74.7578125 420.02734375 C-75.03637022 420.97648336 -75.31492794 421.92562298 -75.6019268 422.9035244 C-77.00766834 427.69334597 -78.41342201 432.48316398 -79.81918335 437.27297974 C-82.60737325 446.77311674 -85.39548862 456.27327562 -88.18359375 465.7734375 C-88.45997744 466.71518137 -88.73636112 467.65692524 -89.02112007 468.6272068 C-92.84683396 481.66288409 -96.67230159 494.69863362 -100.49758911 507.73443604 C-102.63526037 515.01918102 -104.77299968 522.30390603 -106.91075325 529.58862686 C-108.35803932 534.52049372 -109.80528862 539.45237137 -111.25244141 544.38427734 C-111.66149562 545.77827948 -111.66149562 545.77827948 -112.07881355 547.20044327 C-112.61979887 549.04416072 -113.16071729 550.8878978 -113.7015667 552.73165512 C-114.9988767 557.15371191 -116.29748204 561.57537915 -117.59915161 565.99615479 C-119.79691782 573.46402976 -121.98762747 580.93333449 -124.12731647 588.41809273 C-125.02391894 591.55231379 -125.92733266 594.68455288 -126.83128166 597.81666183 C-127.2451472 599.25820705 -127.65558488 600.70074202 -128.0621357 602.14436722 C-132.24164851 616.98261615 -136.77909897 628.59516756 -150.75 636.4375 C-156.56346521 639.48541676 -161.1658978 640.15443899 -167.69921875 640.19287109 C-168.47056656 640.20104858 -169.24191437 640.20922607 -170.03663635 640.21765137 C-172.58691653 640.24243888 -175.13714103 640.2590097 -177.6875 640.2734375 C-178.99998718 640.28142302 -178.99998718 640.28142302 -180.33898926 640.28956985 C-184.97582115 640.31628029 -189.6126264 640.33565672 -194.24951172 640.35009766 C-198.06909327 640.3633998 -201.88813589 640.39118617 -205.70751953 640.43212891 C-210.33525182 640.4817269 -214.96249795 640.50625231 -219.59048462 640.51332474 C-221.3445873 640.51999468 -223.09868097 640.53510421 -224.85263062 640.55921555 C-237.34175253 640.72102448 -248.62406643 639.81598162 -258.375 630.9375 C-259.12523437 630.28652344 -259.87546875 629.63554688 -260.6484375 628.96484375 C-267.30618486 620.57077357 -270.2699865 610.64989174 -272.75 600.390625 C-273.08332264 599.05739138 -273.41791395 597.72447442 -273.75364685 596.3918457 C-274.66145143 592.77397838 -275.55197199 589.15205536 -276.43958664 585.52919006 C-277.39326061 581.65061687 -278.36361512 577.77621935 -279.33227539 573.90136719 C-281.00855505 567.18757092 -282.67537779 560.47148618 -284.33642578 553.75390625 C-287.09983511 542.58118476 -289.88965285 531.41512002 -292.68359375 520.25 C-292.92299305 519.29329155 -293.16239235 518.3365831 -293.40904617 517.35088348 C-293.64866451 516.39331398 -293.88828285 515.43574448 -294.13516235 514.44915771 C-294.61810441 512.51916539 -295.10104509 510.58917271 -295.58398438 508.65917969 C-295.82234701 507.7067123 -296.06070965 506.75424492 -296.30629539 505.77291489 C-297.91560929 499.34074758 -299.52045423 492.90747767 -301.12304688 486.47363281 C-305.49690857 468.9194636 -309.89555696 451.37157154 -314.35606575 433.83919525 C-314.84801025 431.90394978 -315.33879944 429.96841025 -315.82839775 428.03256989 C-316.50465714 425.36034754 -317.18539376 422.68930711 -317.86743164 420.01855469 C-318.0693191 419.21739983 -318.27120655 418.41624496 -318.47921181 417.59081268 C-319.15851149 414.00239563 -319.15851149 414.00239563 -321 411 C-321.17078568 411.67983255 -321.34157135 412.35966511 -321.51753235 413.06009865 C-325.76023105 429.94807157 -330.00521404 446.83546885 -334.25245667 463.72229958 C-336.3067112 471.89012698 -338.36029329 480.05812217 -340.41210938 488.2265625 C-344.76213451 505.54298735 -349.12095492 522.85713783 -353.5018158 540.16579056 C-355.44567904 547.84658146 -357.38558455 555.52831952 -359.31494141 563.21276855 C-360.97085378 569.80775126 -362.63576802 576.40038151 -364.31210423 582.99020374 C-365.17203516 586.37169996 -366.02785673 589.75409531 -366.87258911 593.13942337 C-367.79643293 596.83224005 -368.73606934 600.52069069 -369.6796875 604.20849609 C-369.94348709 605.27869869 -370.20728668 606.34890129 -370.4790802 607.45153427 C-373.47207178 618.9941604 -378.67678525 628.90498739 -389 635.3125 C-395.2438372 638.96474452 -400.81178977 640.299802 -408.01806641 640.30639648 C-408.79945984 640.31472 -409.58085327 640.32304352 -410.38592529 640.33161926 C-412.95785581 640.35562416 -415.52953197 640.36448147 -418.1015625 640.37109375 C-419.90270051 640.38007022 -421.7038378 640.38919224 -423.50497437 640.39845276 C-427.27921352 640.41492158 -431.05336422 640.42263851 -434.82763672 640.42553711 C-439.63574562 640.43090602 -444.44300846 640.4685331 -449.25087929 640.51428127 C-452.97267596 640.54420823 -456.69427319 640.55126411 -460.41617966 640.55226326 C-462.18701408 640.5564378 -463.95785065 640.56875937 -465.72856522 640.58978081 C-479.55663102 640.74082372 -490.11191947 639.06181239 -500.8671875 629.55078125 C-507.58856645 621.51220898 -510.82649049 612.489926 -513.87890625 602.59375 C-514.3269516 601.17543149 -514.77616734 599.75748226 -515.22645569 598.33987427 C-516.4343548 594.526555 -517.62666815 590.70852629 -518.81629181 586.88947296 C-520.07995502 582.84302974 -521.35869089 578.80135648 -522.63623047 574.75927734 C-524.74299026 568.08861909 -526.84237083 561.41568374 -528.93701172 554.74121094 C-531.74989416 545.78139889 -534.588908 536.83008256 -537.44140625 527.8828125 C-537.65768991 527.20430489 -537.87397358 526.52579727 -538.09681129 525.82672882 C-538.96224531 523.11195987 -539.82781667 520.3972348 -540.6936655 517.68259811 C-542.85703854 510.89950898 -545.01465889 504.11459438 -547.17165565 497.3294754 C-548.25002084 493.93737332 -549.3286243 490.54534701 -550.40722656 487.15332031 C-550.62072408 486.48189373 -550.83422159 485.81046715 -551.05418873 485.11869431 C-553.44927974 477.58665296 -555.84565293 470.05501964 -558.2421875 462.5234375 C-558.56738058 461.50145201 -558.56738058 461.50145201 -558.89914322 460.45882034 C-559.99457503 457.01622272 -561.09002612 453.57363123 -562.18548584 450.13104248 C-564.15505844 443.9414372 -566.12446041 437.75177762 -568.09387589 431.56212234 C-569.18757699 428.12474603 -570.28128905 424.68737319 -571.375 421.25 C-571.81250005 419.87500002 -572.25000005 418.50000002 -572.6875 417.125 C-572.9040625 416.444375 -573.120625 415.76375 -573.34375 415.0625 C-574 413 -574.65625 410.9375 -575.3125 408.875 C-575.52906879 408.19435612 -575.74563759 407.51371223 -575.96876907 406.81244278 C-576.40620759 405.43763418 -576.84364402 404.06282492 -577.28107834 402.68801498 C-578.37575174 399.24758104 -579.47046177 395.80715875 -580.56524658 392.36676025 C-582.52300805 386.21430681 -584.48053426 380.06177916 -586.43664932 373.90880203 C-587.51487308 370.51726758 -588.59331714 367.12580322 -589.671875 363.734375 C-589.99307438 362.72437061 -589.99307438 362.72437061 -590.32076263 361.6939621 C-593.35481399 352.15494389 -596.39936895 342.61932491 -599.45068359 333.08581543 C-601.17414199 327.70089879 -602.89492006 322.31512673 -604.61509705 316.92916107 C-606.01987822 312.53158716 -607.42825105 308.1351851 -608.83932877 303.73962784 C-609.708031 301.03061843 -610.5732818 298.32051588 -611.43758392 295.61009979 C-612.02921967 293.75838311 -612.62505004 291.90800827 -613.2210083 290.05767822 C-613.57443298 288.94713074 -613.92785767 287.83658325 -614.29199219 286.69238281 C-614.59949402 285.73229309 -614.90699585 284.77220337 -615.22381592 283.78302002 C-616.02624883 280.90588442 -616.50895016 277.94629902 -617 275 C-586.97 275 -556.94 275 -526 275 C-523.50832291 281.22919273 -521.1275999 287.33968582 -519.05615234 293.69628906 C-518.78760343 294.51139733 -518.51905451 295.3265056 -518.24236774 296.16631413 C-517.3539561 298.86512923 -516.4700036 301.56538361 -515.5859375 304.265625 C-514.94505414 306.2146409 -514.3038351 308.16354645 -513.66230774 310.11235046 C-512.28514165 314.29741559 -510.90973531 318.48305304 -509.53573608 322.66915894 C-505.83780905 333.93441375 -502.12790706 345.19572753 -498.41796875 356.45703125 C-498.034433 357.62153368 -497.65089725 358.78603611 -497.25573921 359.98582649 C-491.42962572 377.67245656 -485.56809652 395.34703641 -479.67578125 413.01171875 C-479.29639908 414.1491238 -478.91701691 415.28652885 -478.52613831 416.45840073 C-474.85707561 427.45664866 -471.18390134 438.45351937 -467.50741959 449.44928932 C-461.23322752 468.21643733 -454.96278201 486.98501763 -448.8223362 505.79644966 C-448.29266667 507.41781469 -447.76158778 509.03872006 -447.22900963 510.659132 C-446.50608331 512.8606176 -445.78890149 515.06388626 -445.07348633 517.26782227 C-444.67059891 518.50266861 -444.26771149 519.73751495 -443.85261536 521.00978088 C-443 524 -443 524 -443 527 C-442.34 527 -441.68 527 -441 527 C-440.87468745 525.8488096 -440.7493749 524.69761919 -440.62026501 523.51154423 C-440.07666516 519.18578785 -439.14731678 515.03696668 -438.07575989 510.81529236 C-437.88060577 510.03055261 -437.68545164 509.24581286 -437.48438376 508.43729311 C-436.83364736 505.82546761 -436.17623263 503.21537162 -435.51879883 500.60522461 C-435.04836124 498.72296491 -434.57833535 496.84060226 -434.10868835 494.95814514 C-432.8311185 489.84244498 -431.5477022 484.72822775 -430.26319337 479.61426616 C-428.90516393 474.20358625 -427.55235013 468.79160241 -426.19889832 463.379776 C-423.91281591 454.24190294 -421.62325905 445.10490633 -419.33129883 435.96850586 C-417.00603514 426.6993168 -414.68322973 417.42951749 -412.36352539 408.15893555 C-412.08109863 407.03026294 -411.79867188 405.90159034 -411.50768673 404.73871553 C-410.37485036 400.21138897 -409.24205704 395.68405164 -408.10926223 391.15671468 C-405.07172094 379.01804456 -402.03024356 366.88038707 -398.97683716 354.74569702 C-398.71028025 353.68622954 -398.44372335 352.62676206 -398.16908896 351.53518951 C-395.95884951 342.75042652 -395.95884951 342.75042652 -395.02116036 339.02494311 C-391.99215625 326.9874174 -388.99290102 314.94347265 -386.04861557 302.88494909 C-384.95066178 298.39837346 -383.8391242 293.91514587 -382.72894859 289.4315815 C-382.18114043 287.20213249 -381.64028343 284.97096004 -381.10752296 282.73786736 C-376.46965282 263.29877973 -369.88594939 245.66130685 -352.5 234.0625 C-338.13202677 225.61550589 -322.83800913 222.79296582 -306.375 226.125 C-290.28090002 230.34384174 -277.48162594 239.92843041 -268.97425842 254.167099 C-264.6811365 262.24387543 -262.53875558 271.01668756 -260.375 279.84375 C-260.03332961 281.21587692 -259.69106729 282.58785656 -259.3482666 283.95970154 C-258.4191283 287.68621038 -257.4991462 291.41492492 -256.58096313 295.14414597 C-255.79230284 298.34222933 -254.99820521 301.53895297 -254.20417023 304.73570538 C-247.61394252 331.27114249 -241.14327264 357.83603378 -234.68481064 384.40379333 C-227.12480221 415.49858261 -219.44870779 446.56428856 -211.75 477.625 C-211.45501617 478.81518108 -211.16003235 480.00536217 -210.85610962 481.23160934 C-207.23983442 495.82167548 -203.62118793 510.41115243 -200 525 C-198.06311536 522.09467304 -197.28253859 520.01800749 -196.31787109 516.70263672 C-195.83219162 515.04803185 -195.83219162 515.04803185 -195.33670044 513.36000061 C-194.98582367 512.14549728 -194.6349469 510.93099396 -194.2734375 509.6796875 C-193.89484261 508.38356104 -193.51575006 507.08757985 -193.13619995 505.79173279 C-192.31341051 502.97929819 -191.49373271 500.16598198 -190.6763916 497.35195923 C-189.35319922 492.79708428 -188.02262744 488.24438683 -186.69042969 483.69213867 C-186.46249222 482.91320598 -186.23455475 482.13427328 -185.99971008 481.33173656 C-185.53181784 479.73286001 -185.06390175 478.13399044 -184.59596252 476.53512764 C-183.87417834 474.06814559 -183.15303404 471.60097719 -182.43200684 469.1337738 C-177.3326946 451.69020821 -172.16958936 434.26566778 -167.00055695 416.842659 C-165.73605829 412.5799809 -164.4723084 408.31708084 -163.20849609 404.05419922 C-161.4169936 398.01163187 -159.62526042 391.96913302 -157.8332386 385.92671967 C-154.54861349 374.85138085 -151.26598278 363.77545194 -147.984375 352.69921875 C-147.73734077 351.86542002 -147.49030655 351.03162128 -147.23578644 350.17255592 C-145.98915549 345.96484765 -144.74255641 341.75712993 -143.49597168 337.54940796 C-141.24757944 329.96024108 -138.99890401 322.3711581 -136.75025177 314.78206825 C-135.50015642 310.56304889 -134.25007912 306.34402417 -133 302.125 C-132.50000009 300.43749997 -132.00000009 298.74999997 -131.5 297.0625 C-131.12875 295.80953125 -131.12875 295.80953125 -130.75 294.53125 C-130 292 -129.25 289.46875 -128.5 286.9375 C-128.25249308 286.1021639 -128.00498615 285.26682779 -127.74997902 284.40617847 C-127.25004947 282.71891674 -126.75011941 281.03165516 -126.25018883 279.34439373 C-124.99910659 275.12199954 -123.74803343 270.89960267 -122.49697876 266.67720032 C-120.25991128 259.1269634 -118.0227857 251.57674372 -115.78531075 244.02662754 C-114.55214059 239.8654215 -113.31902497 235.7041993 -112.0859375 231.54296875 C-111.71869631 230.30366639 -111.71869631 230.30366639 -111.3440361 229.03932762 C-107.87226728 217.32300861 -104.40310634 205.60591971 -100.93560791 193.88833618 C-98.97613943 187.26682045 -97.01600871 180.64550082 -95.05572891 174.02422523 C-93.45434418 168.61496714 -91.85385078 163.20544638 -90.2540226 157.79572773 C-89.26849908 154.46402667 -88.28212443 151.13257805 -87.29551315 147.80119896 C-86.83860745 146.25776991 -86.38205772 144.71423542 -85.92589188 143.17058754 C-85.30131452 141.05720938 -84.67546794 138.94421103 -84.04931641 136.83129883 C-83.69978912 135.64997879 -83.35026184 134.46865875 -82.99014282 133.25154114 C-82.04519836 130.14842739 -81.04101876 127.0720638 -80 124 C-81.05316406 123.75765625 -82.10632812 123.5153125 -83.19140625 123.265625 C-92.8485643 121.02726308 -102.43808993 118.61665079 -112 116 C-112 113 -112 113 -110.6296072 111.26325703 C-109.98238233 110.62009635 -109.33515745 109.97693567 -108.6683197 109.31428528 C-107.56020432 108.20215164 -107.56020432 108.20215164 -106.42970276 107.06755066 C-105.19787514 105.85425835 -105.19787514 105.85425835 -103.94116211 104.61645508 C-103.08433838 103.76079956 -102.22751465 102.90514404 -101.34472656 102.02355957 C-99.47695164 100.16051617 -97.60667398 98.3004651 -95.7315197 96.44489479 C-92.76079777 93.50518679 -89.80047789 90.55515126 -86.84144592 87.60368347 C-82.15230465 82.92905046 -77.45600361 78.261684 -72.75674206 73.5972268 C-64.3631005 65.26532025 -55.98133006 56.92148117 -47.60255247 48.57462996 C-44.66545549 45.64929578 -41.7252046 42.72718058 -38.78219879 39.80779135 C-36.5077779 37.55059905 -34.23652188 35.29022437 -31.96459961 33.03051758 C-31.15755081 32.23177719 -30.35050201 31.4330368 -29.51899719 30.61009216 C-25.32086443 26.42834726 -21.29222395 22.16565466 -17.43712616 17.6646452 C-15.64852655 15.59288293 -13.75940579 13.64569169 -11.81640625 11.71875 C-10.76743164 10.67460937 -10.76743164 10.67460937 -9.69726562 9.609375 C-8.99279297 8.91328125 -8.28832031 8.2171875 -7.5625 7.5 C-6.83095703 6.77296875 -6.09941406 6.0459375 -5.34570312 5.296875 C-3.56610176 3.52890501 -1.78419082 1.76333622 0 0 Z " fill="#C36400" transform="translate(1835,0)"/>
<path d="M0 0 C2.68249533 2.40121823 5.31058627 4.84702588 7.91796875 7.33007812 C9.99191871 9.43583421 9.99191871 9.43583421 12.17578125 10.41210938 C12.17578125 -4.10789063 12.17578125 -18.62789062 12.17578125 -33.58789062 C44.18578125 -33.58789062 76.19578125 -33.58789062 109.17578125 -33.58789062 C109.24205635 16.20510336 109.29739523 65.99805537 109.32897724 115.79108093 C109.33272886 121.68453254 109.33661187 127.57798407 109.34057617 133.47143555 C109.3413631 134.64459676 109.34215003 135.81775797 109.34296081 137.02646952 C109.355975 155.96216396 109.37960659 174.89783075 109.40723964 193.83350886 C109.4354053 213.29812043 109.45198096 232.76271764 109.45804673 252.22734874 C109.46214016 264.21473259 109.47501545 276.20203829 109.49953065 288.18939804 C109.51552602 296.43648523 109.52015081 304.68353268 109.51628538 312.93063421 C109.51438502 317.67162686 109.51706258 322.41248406 109.53339767 327.15345192 C109.72764545 386.5795599 102.27360636 445.78976751 65.17578125 494.41210938 C64.45777344 495.35570312 63.73976563 496.29929687 63 497.27148438 C31.12326486 537.59817673 -15.49878339 553.36561861 -64.82421875 560.41210938 C-35.12421875 560.90710938 -35.12421875 560.90710938 -4.82421875 561.41210938 C-4.82421875 561.74210938 -4.82421875 562.07210937 -4.82421875 562.41210938 C-74.12421875 562.41210938 -143.42421875 562.41210938 -214.82421875 562.41210938 C-214.82421875 562.08210937 -214.82421875 561.75210938 -214.82421875 561.41210938 C-192.38421875 561.08210937 -169.94421875 560.75210938 -146.82421875 560.41210938 C-156.06421875 559.09210937 -165.30421875 557.77210938 -174.82421875 556.41210938 C-211.28564331 549.32718802 -244.62753229 536.9938963 -276.82421875 518.41210938 C-272.06336104 499.77297371 -267.06960765 481.20895942 -261.92657471 462.67156982 C-261.00606652 459.35180832 -260.08812709 456.03133656 -259.16992188 452.7109375 C-257.39028974 446.27736494 -255.60826463 439.84445931 -253.82421875 433.41210938 C-249.78816455 434.14469871 -246.70527246 435.31981907 -243.0546875 437.22070312 C-241.36907715 438.08671143 -241.36907715 438.08671143 -239.64941406 438.97021484 C-239.05696899 439.27683044 -238.46452393 439.58344604 -237.85412598 439.89935303 C-183.02300265 468.17954116 -118.71780751 485.14162132 -57.82421875 466.41210938 C-42.22755306 461.01720194 -29.27431298 453.25952272 -16.82421875 442.41210938 C-16.19902344 441.87199219 -15.57382812 441.331875 -14.9296875 440.77539062 C3.58064545 423.56554945 11.5749088 399.00677508 13.17578125 374.41210938 C13.46374075 366.37303086 13.3676219 358.32942672 13.30078125 350.28710938 C13.29071928 348.15299905 13.28159919 346.01888407 13.2734375 343.88476562 C13.25170668 338.72709557 13.21735889 333.56965604 13.17578125 328.41210938 C12.39291748 329.21310059 11.61005371 330.0140918 10.8034668 330.83935547 C-0.0102935 341.82995188 -0.0102935 341.82995188 -6.01171875 346.03710938 C-6.94226074 346.70093628 -6.94226074 346.70093628 -7.89160156 347.37817383 C-51.78805312 378.14615252 -105.73341228 385.09837831 -157.89013672 375.94140625 C-196.27658353 368.66401324 -230.15364547 351.77020925 -258.34472656 324.82421875 C-259.32586715 323.88776377 -260.31217122 322.95668707 -261.30371094 322.03125 C-291.72786504 293.59258782 -310.77649379 253.35891923 -316.82421875 212.41210938 C-316.99864502 211.32534912 -317.17307129 210.23858887 -317.3527832 209.11889648 C-318.97798683 197.92585703 -319.16333211 186.83216855 -319.13989258 175.53344727 C-319.13674776 172.37871189 -319.16022732 169.22493182 -319.18554688 166.0703125 C-319.24370142 147.70752192 -317.60611689 129.5652545 -313.07421875 111.72460938 C-312.69015869 110.17773438 -312.69015869 110.17773438 -312.29833984 108.59960938 C-303.01286044 72.28605278 -284.83884078 41.29137925 -258.82421875 14.41210938 C-257.76460938 13.29255859 -257.76460938 13.29255859 -256.68359375 12.15039062 C-197.15818039 -49.43179515 -86.43596366 -59.68885101 0 0 Z M-184.82421875 79.41210938 C-185.56285156 80.06824219 -186.30148438 80.724375 -187.0625 81.40039062 C-210.07742656 102.93941007 -219.74632575 134.95952194 -220.94921875 165.59570312 C-221.58397216 199.91205921 -211.10698531 231.04375298 -187.82421875 256.41210938 C-164.13479452 280.05580113 -133.17077653 289.64644169 -100.41467285 289.66314697 C-89.92877127 289.64031754 -79.97632402 289.21034939 -69.82421875 286.41210938 C-69.09879883 286.21343262 -68.37337891 286.01475586 -67.62597656 285.81005859 C-37.21447991 277.16822206 -13.82278942 257.67424034 1.76831055 230.33911133 C18.04139434 200.6109572 20.92110298 163.31971298 11.95703125 130.84570312 C3.44350704 102.2237544 -15.63974547 77.88228746 -41.7109375 63.15039062 C-54.38118801 56.36213508 -68.51197163 51.14488143 -82.82421875 49.41210938 C-83.6646875 49.30253906 -84.50515625 49.19296875 -85.37109375 49.08007812 C-121.86722508 45.03095113 -157.58814386 54.52840802 -184.82421875 79.41210938 Z " fill="#C46500" transform="translate(318.82421875,247.587890625)"/>
<path d="M0 0 C0.85432617 0.16628906 1.70865234 0.33257812 2.58886719 0.50390625 C29.90892899 5.93373083 56.65202001 17.28381018 78.4609375 34.77099609 C79.84946218 35.87978944 81.26696046 36.95206186 82.6875 38.01953125 C103.42321495 54.04545729 119.86770421 74.48007449 133 97 C133.52303711 97.88341064 133.52303711 97.88341064 134.05664062 98.78466797 C154.35188194 133.40881531 161.2249442 174.01645222 161.25 213.625 C161.25067474 214.58297485 161.25134949 215.54094971 161.25204468 216.5279541 C161.23525144 231.55649143 160.67964317 246.17492689 158 261 C157.83371094 261.94568848 157.66742187 262.89137695 157.49609375 263.86572266 C151.88770182 294.74822896 140.4778776 323.57161224 122 349 C121.58379395 349.58974609 121.16758789 350.17949219 120.73876953 350.78710938 C108.283415 368.35092778 91.91856633 384.10175768 74 396 C73.43909668 396.37366699 72.87819336 396.74733398 72.30029297 397.13232422 C68.6081549 399.55764869 64.8324055 401.80478337 61 404 C59.87722656 404.65484375 58.75445313 405.3096875 57.59765625 405.984375 C31.59718546 420.75029532 0.13697244 429.05363681 -29.765625 429.203125 C-30.6797113 429.20882507 -31.59379761 429.21452515 -32.5355835 429.22039795 C-34.46511704 429.2297927 -36.39466623 429.23635977 -38.32421875 429.24023438 C-41.20082702 429.24983587 -44.07668695 429.28086907 -46.953125 429.3125 C-63.60191128 429.40850552 -80.12307891 427.91730095 -96.1875 423.3125 C-97.08911865 423.05976318 -97.9907373 422.80702637 -98.91967773 422.54663086 C-108.01465385 419.88509638 -116.52492011 416.20702377 -125 412 C-126.15886719 411.43410156 -127.31773437 410.86820313 -128.51171875 410.28515625 C-142.35032486 403.19057532 -153.90948062 393.79406273 -165 383 C-165.84304688 382.1853125 -166.68609375 381.370625 -167.5546875 380.53125 C-172.82036713 375.35926573 -172.82036713 375.35926573 -174 373 C-174.33 445.6 -174.66 518.2 -175 593 C-207.01 593 -239.02 593 -272 593 C-272 398.3 -272 203.6 -272 3 C-239.99 3 -207.98 3 -175 3 C-174.67 18.84 -174.34 34.68 -174 51 C-171.380625 48.2775 -168.76125 45.555 -166.0625 42.75 C-143.43925424 19.87117092 -115.26300689 6.51856847 -84 0 C-83.21077148 -0.16661133 -82.42154297 -0.33322266 -81.60839844 -0.50488281 C-55.79233887 -5.65104739 -25.74971693 -5.28519442 0 0 Z M-149 125 C-173.69677524 154.70390875 -182.43891926 192.4024962 -179.25048828 230.46044922 C-176.69467878 256.37227223 -167.13123844 281.57285863 -149.11328125 300.7109375 C-147 303 -147 303 -145.05078125 305.515625 C-141.32271441 310.03191169 -136.60607134 313.42024791 -132 317 C-131.21496094 317.61230469 -130.42992187 318.22460938 -129.62109375 318.85546875 C-103.03730029 338.51218236 -68.9559813 344.42804749 -36.6875 339.8125 C-6.23815458 334.91229904 20.6631238 318.92906002 38.89160156 293.91918945 C60.61791138 263.30053854 66.77658837 224.47651061 60.875 187.625 C60.34723335 184.72212103 59.70936856 181.86360551 59 179 C58.80132324 178.18966309 58.60264648 177.37932617 58.39794922 176.54443359 C55.36057204 164.5974167 51.0722286 153.71912337 45 143 C44.45730469 142.02933594 43.91460938 141.05867188 43.35546875 140.05859375 C27.71474129 113.91460406 1.59112547 94.96306797 -27.82299805 87.52148438 C-72.7327214 77.05280333 -118.26207913 90.03466898 -149 125 Z " fill="#141313" transform="translate(2152,211)"/>
<path d="M0 0 C32.01 0 64.02 0 97 0 C97.33 87.12 97.66 174.24 98 264 C104.93 257.07 104.93 257.07 112 250 C114.71995378 247.64559262 117.31922107 245.43893126 120.1875 243.3125 C120.88762207 242.78760986 121.58774414 242.26271973 122.30908203 241.72192383 C148.034233 222.8642005 177.61838583 212.53895587 209 208 C209.71728271 207.8954248 210.43456543 207.79084961 211.17358398 207.68310547 C220.32648695 206.56609362 229.60655456 206.75606067 238.8125 206.75 C239.73106781 206.74932526 240.64963562 206.74865051 241.59603882 206.74795532 C254.95546476 206.76356128 267.9040099 207.13057452 281 210 C281.81549316 210.16628906 282.63098633 210.33257812 283.47119141 210.50390625 C317.3788184 217.52062155 349.31720418 236.02877776 369 265 C394.64756867 305.0481296 397.18521999 351.96855329 397.11352539 398.1159668 C397.11324271 400.69016519 397.11340283 403.26436366 397.1139679 405.83856201 C397.11448775 411.34071534 397.11139787 416.84285664 397.10573006 422.34500694 C397.09754115 430.2998161 397.09499234 438.25461955 397.09374207 446.20943246 C397.09156305 459.12115161 397.08493441 472.03286438 397.07543945 484.94458008 C397.0662354 497.47387663 397.05916927 510.00317144 397.05493164 522.5324707 C397.05453756 523.69439185 397.05453756 523.69439185 397.05413551 524.87978616 C397.0528303 528.76648669 397.05156664 532.65318723 397.05032361 536.53988779 C397.03998687 568.69326418 397.02156809 600.84662869 397 633 C364.66 633 332.32 633 299 633 C298.97812622 621.85053589 298.97812622 621.85053589 298.95581055 610.47583008 C298.90692431 586.62017489 298.84348002 562.76458082 298.77101372 538.90898662 C298.75974723 535.19575378 298.74860851 531.48252057 298.73754883 527.76928711 C298.73534514 527.03013255 298.73314146 526.29097799 298.730871 525.52942481 C298.69561841 513.60318143 298.67068661 501.6769381 298.64965298 489.75066213 C298.62779451 477.48875487 298.59465012 465.22691449 298.55129844 452.96506423 C298.52495351 445.41518999 298.50713233 437.86539888 298.50065396 430.31548103 C298.49471439 424.49999383 298.47297841 418.68464318 298.44572449 412.86922073 C298.43701508 410.502758 298.43320672 408.13627065 298.43499184 405.76979256 C298.45131624 374.11015294 295.02596415 340.42606972 272.37109375 316.28125 C255.36334406 299.91794552 231.32107648 295.21045047 208.5 294.75 C178.74914005 295.34800724 151.86089427 303.11739016 130 324 C129.38511719 324.54011719 128.77023438 325.08023437 128.13671875 325.63671875 C107.08609171 344.84844044 100.16454382 376.8122498 98 404 C97.86657289 407.29950571 97.84552876 410.59431998 97.84178162 413.89627075 C97.83684364 414.83994849 97.83190566 415.78362623 97.82681805 416.75590026 C97.81157029 419.88951131 97.80311726 423.02310208 97.79467773 426.15673828 C97.78508919 428.41434403 97.77507854 430.67194801 97.76467896 432.92955017 C97.73772966 439.03825601 97.7166663 445.1469695 97.69667697 451.25570154 C97.67475564 457.64719683 97.64739711 464.03866881 97.62062073 470.43014526 C97.57643538 481.15133715 97.53558632 491.87253573 97.49731445 502.59375 C97.45789988 513.63249648 97.41645956 524.67123232 97.37231445 535.70996094 C97.36959018 536.39135569 97.36686591 537.07275044 97.36405908 537.77479352 C97.35037862 541.19343963 97.33665854 544.61208557 97.32291877 548.03073144 C97.20913761 576.35379966 97.1030787 604.67689068 97 633 C64.99 633 32.98 633 0 633 C0 424.11 0 215.22 0 0 Z " fill="#141313" transform="translate(2375,1)"/>
<path d="M0 0 C0.98945618 0.00182281 1.97891235 0.00364563 2.99835205 0.00552368 C17.82993718 0.05148037 32.26718496 0.52992977 46.875 3.3125 C48.28966553 3.56990967 48.28966553 3.56990967 49.73291016 3.83251953 C99.26608697 13.02907252 144.62164478 38.39270313 175.875 78.3125 C176.62910156 79.27285156 177.38320312 80.23320312 178.16015625 81.22265625 C183.58721091 88.28806704 188.43855392 95.58863057 192.875 103.3125 C193.2359375 103.93721191 193.596875 104.56192383 193.96875 105.20556641 C210.85326664 134.77545557 219.91805213 169.70090421 220.078125 203.76171875 C220.08382507 204.73623489 220.08952515 205.71075104 220.09539795 206.71479797 C220.10478908 208.7711989 220.1113583 210.82761448 220.11523438 212.8840332 C220.1248341 215.94706509 220.1558705 219.0093936 220.1875 222.07226562 C220.285799 240.23984135 218.64011771 258.21699475 214.1875 275.875 C213.80295654 277.4206665 213.80295654 277.4206665 213.41064453 278.99755859 C207.32616006 302.61520355 197.51195904 325.66595078 182.875 345.3125 C182.27486084 346.12025879 182.27486084 346.12025879 181.66259766 346.94433594 C164.17563051 370.29972159 143.22777151 389.75061064 117.875 404.3125 C117.25463867 404.67053711 116.63427734 405.02857422 115.99511719 405.39746094 C96.27958812 416.65650255 74.68359627 424.14074658 52.4375 428.5 C51.65246094 428.65500977 50.86742187 428.81001953 50.05859375 428.96972656 C33.4813421 432.02798963 17.06895891 432.68644722 0.25 432.625 C-0.81115021 432.62284485 -1.87230042 432.6206897 -2.96560669 432.61846924 C-18.19039719 432.56881772 -33.15730886 432.38872364 -48.125 429.3125 C-49.1444873 429.10318848 -50.16397461 428.89387695 -51.21435547 428.67822266 C-58.58101005 427.11459295 -65.8639276 425.30759132 -73.125 423.3125 C-73.93098633 423.09255371 -74.73697266 422.87260742 -75.56738281 422.64599609 C-107.10388969 413.76738265 -134.65144917 395.73070045 -158.125 373.3125 C-159.51332031 372.00345703 -159.51332031 372.00345703 -160.9296875 370.66796875 C-198.86601992 333.96752251 -219.13719636 280.78349802 -220.29406738 228.48118591 C-220.35290173 224.88324949 -220.37211809 221.28588344 -220.375 217.6875 C-220.37567474 216.92304565 -220.37634949 216.15859131 -220.37704468 215.37097168 C-220.30110023 160.7505883 -203.47810169 109.0334061 -166.17578125 68.55078125 C-164.25055454 66.44953381 -162.40421697 64.29930694 -160.5625 62.125 C-157.05854188 58.11704791 -153.20187172 54.72390297 -149.125 51.3125 C-148.25101563 50.55066406 -147.37703125 49.78882813 -146.4765625 49.00390625 C-119.50975593 25.83269578 -87.14857304 11.67396376 -52.5 4.5625 C-51.05415527 4.26424316 -51.05415527 4.26424316 -49.57910156 3.95996094 C-33.09248493 0.75712938 -16.76235356 -0.06424988 0 0 Z M-88.9765625 125.3203125 C-115.17343471 155.73463782 -123.09115406 191.90164406 -121.125 231.3125 C-120.65101716 237.44684739 -119.59413364 243.3439755 -118.125 249.3125 C-117.94227539 250.08787109 -117.75955078 250.86324219 -117.57128906 251.66210938 C-110.64014927 280.18335127 -92.81637561 308.7128017 -67.671875 324.77734375 C-66.83140625 325.28394531 -65.9909375 325.79054688 -65.125 326.3125 C-64.14015625 326.95316406 -63.1553125 327.59382812 -62.140625 328.25390625 C-35.03790479 345.0181475 -0.84009625 348.15874798 29.875 341.3125 C47.26314247 336.9808058 63.13161884 328.79383087 76.875 317.3125 C77.85855469 316.49265625 78.84210938 315.6728125 79.85546875 314.828125 C105.66826227 292.59371454 118.68489596 261.72057856 121.625 228.1875 C121.72710587 226.23005568 121.81224329 224.27160068 121.875 222.3125 C121.91496094 221.49007812 121.95492187 220.66765625 121.99609375 219.8203125 C122.97161228 182.98014228 111.10905068 149.87077994 86.2421875 122.78515625 C64.76178741 100.34770863 35.75142216 88.61771203 4.875 87.3125 C4.09511719 87.27125 3.31523438 87.23 2.51171875 87.1875 C-32.34225169 86.22435056 -65.31740889 99.69942778 -88.9765625 125.3203125 Z " fill="#C46500" transform="translate(974.125,207.6875)"/>
<path d="M0 0 C0.90202148 0.00215515 1.80404297 0.0043103 2.73339844 0.00653076 C16.65149561 0.05980135 30.25758576 0.5293878 43.9375 3.3125 C44.94087402 3.51649414 45.94424805 3.72048828 46.97802734 3.93066406 C78.07045064 10.46992468 127.91259292 24.48505829 147.23413086 52.17041016 C147.9375 54.3125 147.9375 54.3125 147.1015625 56.43701172 C146.59367187 57.19771973 146.08578125 57.95842773 145.5625 58.7421875 C144.99660156 59.6084375 144.43070313 60.4746875 143.84765625 61.3671875 C143.21730469 62.29789062 142.58695313 63.22859375 141.9375 64.1875 C140.62457906 66.18461917 139.3120908 68.18202284 138 70.1796875 C136.98292969 71.71061035 136.98292969 71.71061035 135.9453125 73.27246094 C132.88035986 77.91312123 129.91093152 82.61290163 126.9375 87.3125 C125.7817457 89.1292217 124.6254927 90.94562622 123.46875 92.76171875 C121.02858601 96.59596973 118.59154742 100.4321876 116.15625 104.26953125 C115.53363281 105.24986328 114.91101562 106.23019531 114.26953125 107.24023438 C113.08902571 109.09909011 111.90927931 110.95842829 110.73046875 112.81835938 C107.20562238 118.36641709 103.60759766 123.85942922 99.9375 129.3125 C95.87342246 126.33701466 91.94223117 123.33182387 88.1875 119.96875 C84.15017133 116.41543132 79.92047106 113.33889052 75.4375 110.375 C74.65777832 109.85921387 73.87805664 109.34342773 73.07470703 108.81201172 C47.40715686 92.13876209 13.66551126 80.39197011 -17.27734375 85.9609375 C-27.85764486 88.51593282 -38.79197177 92.75974866 -44.94921875 102.22265625 C-48.70170503 109.26679716 -50.27362476 116.33926201 -49.0625 124.3125 C-41.77157588 144.65186371 -20.20509484 153.69141916 -2.0625 162.3125 C5.73270783 165.76815781 13.66701406 168.8739162 21.61694336 171.95297241 C27.64558842 174.28933984 33.65541122 176.67339099 39.66796875 179.05078125 C40.83456024 179.51076004 42.00115173 179.97073883 43.20309448 180.44465637 C56.59798748 185.73589553 69.82500129 191.35340824 82.9375 197.3125 C83.98647461 197.786875 85.03544922 198.26125 86.11621094 198.75 C117.17707613 212.89215699 142.38798874 230.32175103 154.9375 263.3125 C158.26053618 273.21090565 160.08310811 283.02445887 160.17578125 293.453125 C160.183853 294.33417908 160.19192474 295.21523315 160.20024109 296.12298584 C160.21403618 297.98887191 160.22477867 299.85478273 160.23266602 301.72070312 C160.24409143 303.59382742 160.26438997 305.46692166 160.29418945 307.33984375 C160.57605073 325.10182813 158.20256069 340.92882942 150.9375 357.3125 C150.50824219 358.29347656 150.07898437 359.27445313 149.63671875 360.28515625 C136.22982918 388.9494638 111.01723321 409.94933343 81.75 421 C57.51672874 429.71928829 32.83582315 432.85854755 7.15844727 432.70361328 C4.00427938 432.68752183 0.85139547 432.70358625 -2.30273438 432.72265625 C-61.31343553 432.78385495 -121.46644302 413.04039534 -165.0625 372.3125 C-164.43586762 369.12996824 -163.34228074 366.91324026 -161.55664062 364.21606445 C-161.03043121 363.41536026 -160.5042218 362.61465607 -159.96206665 361.78968811 C-159.38677216 360.92709885 -158.81147766 360.06450958 -158.21875 359.17578125 C-157.62178314 358.27117661 -157.02481628 357.36657196 -156.40975952 356.43455505 C-154.46670899 353.49398895 -152.51515266 350.55919711 -150.5625 347.625 C-149.23304068 345.62089757 -147.90377655 343.61666564 -146.57470703 341.61230469 C-143.94883817 337.65557057 -141.31853854 333.70183495 -138.68457031 329.75048828 C-136.0233961 325.75820554 -133.37217763 321.75955565 -130.72833252 317.75578308 C-128.80733969 314.85179051 -126.87222967 311.957359 -124.9375 309.0625 C-124.26525391 308.04196533 -123.59300781 307.02143066 -122.90039062 305.9699707 C-122.29130859 305.06722412 -121.68222656 304.16447754 -121.0546875 303.234375 C-120.54276855 302.46706055 -120.03084961 301.69974609 -119.50341797 300.90917969 C-118.79016357 300.11882324 -118.79016357 300.11882324 -118.0625 299.3125 C-113.96268479 299.3125 -112.50972857 301.46969478 -109.75 304.1875 C-76.57964422 335.61929271 -32.41669897 347.44293202 12.31430054 346.54496765 C27.08074394 346.11442688 42.03986657 341.95525084 52.5 330.9375 C58.69762568 323.2885316 61.40369975 315.0274816 61.2734375 305.2578125 C60.3693333 297.33113153 56.22715926 292.06610099 50.30224609 287.06152344 C46.08698345 283.94381318 41.49100935 281.76585008 36.75 279.5625 C35.66630127 279.05154785 34.58260254 278.5405957 33.46606445 278.01416016 C17.14892195 270.4699374 0.20302298 264.50398058 -16.7421875 258.54785156 C-50.84240042 246.53872869 -84.54434729 232.31395588 -112.0625 208.3125 C-112.91070313 207.60867188 -113.75890625 206.90484375 -114.6328125 206.1796875 C-130.20555876 192.89284894 -140.38479489 174.10963432 -145.0625 154.3125 C-145.30589111 153.2905957 -145.30589111 153.2905957 -145.55419922 152.24804688 C-152.69771424 120.43028545 -148.84837888 87.95298327 -131.93359375 60.11328125 C-111.99925635 30.27420001 -80.63765337 12.97889744 -46.5 4.5625 C-45.69820312 4.36350098 -44.89640625 4.16450195 -44.0703125 3.95947266 C-29.45083941 0.56400094 -14.93713687 -0.06438421 0 0 Z " fill="#141313" transform="translate(3595.0625,207.6875)"/>
<path d="M0 0 C0.77585449 0.37495605 1.55170898 0.74991211 2.35107422 1.13623047 C26.65057651 13.03084922 51.92731229 30.8354902 68 53 C66.43669591 56.9683873 63.67879829 59.4157171 60.5625 62.1875 C60.02753906 62.67089844 59.49257812 63.15429688 58.94140625 63.65234375 C54.6720617 67.47864311 50.24765938 71.09383728 45.78125 74.6875 C42.75980812 77.1997101 39.87558227 79.82400827 37 82.5 C32.42119516 86.76099576 27.68486925 90.7432256 22.80859375 94.6640625 C19.10526304 97.74416231 15.57394077 100.99156 12.05859375 104.28320312 C4.84401769 111.01483625 4.84401769 111.01483625 2 110.96484375 C-0.72240322 109.65149688 -2.08007463 107.89331849 -4 105.5625 C-26.12075919 80.23008083 -58.93489381 67.15821332 -91.875 64.3125 C-93.91575976 64.19186395 -95.95750666 64.08645474 -98 64 C-98.85078125 63.95875 -99.7015625 63.9175 -100.578125 63.875 C-134.09414915 63.05252088 -166.08267025 74.30736724 -190.61523438 97.16333008 C-215.18323641 120.94868393 -225.68411944 154.55186082 -226.35375977 188.03149414 C-226.51460628 214.29754428 -222.07540176 238.99432549 -209 262 C-208.4225 263.01707031 -207.845 264.03414063 -207.25 265.08203125 C-203.22295513 271.74716338 -198.38205584 277.39241039 -193 283 C-192.195625 283.845625 -191.39125 284.69125 -190.5625 285.5625 C-189.716875 286.366875 -188.87125 287.17125 -188 288 C-187.34128906 288.65355469 -186.68257812 289.30710937 -186.00390625 289.98046875 C-162.21648523 312.67421524 -128.87785025 319.81661797 -96.953125 319.25 C-81.50777982 318.74492004 -66.57091215 316.1324407 -52 311 C-51.35482422 310.77441406 -50.70964844 310.54882812 -50.04492188 310.31640625 C-31.44675356 303.67286277 -15.93270325 293.14572818 -1.86865234 279.40307617 C1.68415179 276 1.68415179 276 5 276 C7.09375 277.65234375 7.09375 277.65234375 9.5 279.9375 C12.99177526 283.18202528 16.52324663 286.27852061 20.25 289.25 C26.01441228 293.91058865 31.38851953 298.93779281 36.79296875 304.00390625 C40.44986591 307.43086294 44.19163743 310.74248987 48 314 C49.10423423 314.94653577 50.20839365 315.89315881 51.3125 316.83984375 C53.15328132 318.41769151 54.99436571 319.99517842 56.83642578 321.5715332 C61.25102567 325.35076189 65.64162236 329.15596506 70 333 C66.28863772 341.49706627 58.09123184 348.26064945 51 354 C50.10152344 354.73605469 49.20304687 355.47210937 48.27734375 356.23046875 C34.31695694 367.33171186 19.1629993 376.49547186 3 384 C1.95924316 384.4942749 1.95924316 384.4942749 0.89746094 384.99853516 C-29.68846441 399.48769916 -63.73522538 408.04742028 -97.66796875 408.203125 C-98.66468094 408.20882507 -99.66139313 408.21452515 -100.68830872 408.22039795 C-102.79178833 408.22979091 -104.89528228 408.23635904 -106.9987793 408.24023438 C-110.13423261 408.24983687 -113.26899967 408.28087276 -116.40429688 408.3125 C-134.77714313 408.40977109 -152.8954001 406.76726039 -170.75 402.25 C-171.78527832 401.99323486 -172.82055664 401.73646973 -173.88720703 401.47192383 C-206.6695406 393.07040856 -235.21543047 376.85330437 -260 354 C-260.8559375 353.2471875 -261.711875 352.494375 -262.59375 351.71875 C-263.87765625 350.58953125 -263.87765625 350.58953125 -265.1875 349.4375 C-265.94417969 348.77621094 -266.70085938 348.11492187 -267.48046875 347.43359375 C-305.95177171 310.27449027 -324.43034797 256.02592218 -326.11181641 203.50756836 C-327.06393137 145.09324568 -313.62034979 89.4004342 -274 45 C-273.53029785 44.46858398 -273.0605957 43.93716797 -272.57666016 43.38964844 C-267.0633645 37.16768846 -261.45974003 31.25666764 -255 26 C-253.91144699 25.08725312 -252.82290648 24.17449132 -251.734375 23.26171875 C-242.96037342 15.98840963 -233.86856375 9.69278983 -224 4 C-222.93386475 3.37762451 -222.93386475 3.37762451 -221.84619141 2.74267578 C-197.09473781 -11.53510883 -169.26015825 -19.51384666 -141 -23 C-140.24307861 -23.09571289 -139.48615723 -23.19142578 -138.70629883 -23.29003906 C-91.29931626 -28.45010856 -42.91866121 -20.82229305 0 0 Z " fill="#141313" transform="translate(3347,232)"/>
<path d="M0 0 C0 35.64 0 71.28 0 108 C-7.92 107.67 -15.84 107.34 -24 107 C-47.45161511 106.3604105 -69.50928997 110.27214269 -90 122 C-91.52753906 122.86818359 -91.52753906 122.86818359 -93.0859375 123.75390625 C-117.91227535 138.74011299 -132.31667047 164.97880152 -139.19140625 192.44921875 C-143.02347758 209.27701023 -143.15252288 226.16934298 -143.20532227 243.33764648 C-143.21492346 245.33983553 -143.22493477 247.34202264 -143.23532104 249.34420776 C-143.26213366 254.733631 -143.28326976 260.12306278 -143.30332303 265.51251483 C-143.32533011 271.16192821 -143.35264613 276.81131598 -143.37937927 282.46070862 C-143.42910859 293.13810913 -143.47411995 303.81552402 -143.51740164 314.49295241 C-143.57622283 328.93587501 -143.64240236 343.37876382 -143.70815182 357.82165623 C-143.81141701 380.54774798 -143.90491159 403.27386916 -144 426 C-176.01 426 -208.02 426 -241 426 C-241 287.4 -241 148.8 -241 6 C-208.99 6 -176.98 6 -144 6 C-143.67 26.46 -143.34 46.92 -143 68 C-139.7 63.71 -136.4 59.42 -133 55 C-130.98327643 52.6511102 -128.99586843 50.36682625 -126.875 48.125 C-126.36767334 47.58383545 -125.86034668 47.0426709 -125.33764648 46.48510742 C-121.44082607 42.3728631 -117.4232776 38.5466644 -113 35 C-112.10539063 34.25621094 -111.21078125 33.51242188 -110.2890625 32.74609375 C-96.98833815 22.04185841 -82.18029759 13.51215589 -66 8 C-65.34354492 7.77618652 -64.68708984 7.55237305 -64.01074219 7.32177734 C-42.59180014 0.16342201 -23.2357428 0 0 0 Z " fill="#C46500" transform="translate(750,208)"/>
<path d="M0 0 C32.34 0 64.68 0 98 0 C98 138.6 98 277.2 98 420 C65.66 420 33.32 420 0 420 C0 281.4 0 142.8 0 0 Z " fill="#141313" transform="translate(2856,214)"/>
<path d="M0 0 C5.82312983 5.03622039 6.88285604 15.67028894 8.68237305 22.85083008 C9.00467896 24.12180038 9.32698486 25.39277069 9.65905762 26.70225525 C10.53750849 30.16818016 11.40985345 33.63561212 12.28034186 37.10354447 C12.82571613 39.27549457 13.37224564 41.44715079 13.91913795 43.6187191 C15.83061646 51.20976218 17.73648974 58.80219095 19.63793945 66.39575195 C21.40454722 73.45007785 23.18442096 80.50096769 24.97029275 87.5504387 C26.50822084 93.62400453 28.03608452 99.70004678 29.55642349 105.77803916 C30.46234155 109.39883526 31.37230646 113.01849114 32.29273033 116.63562965 C33.31993809 120.67387244 34.32619233 124.71706456 35.33081055 128.76098633 C35.7866024 130.53425797 35.7866024 130.53425797 36.25160217 132.34335327 C39.26702252 144.63562693 38.42414857 154.20667538 35.26171875 166.3918457 C34.93188992 167.70144117 34.60320912 169.01132622 34.27557373 170.32147217 C33.3854069 173.8671706 32.47920682 177.4085907 31.56995773 180.94943643 C30.6018451 184.7310371 29.64863811 188.51639502 28.69360352 192.30131531 C26.86745002 199.52903321 25.02779591 206.75324463 23.18339634 213.97632521 C21.14828446 221.94920679 19.12903183 229.9260732 17.11088753 237.90326333 C13.55961755 251.93858946 9.98774075 265.96853863 6.39862251 279.99423242 C4.05775884 289.14253864 1.7295579 298.29383077 -0.57469082 307.45143276 C-2.04224742 313.28336066 -3.51781896 319.11321702 -4.99960423 324.9415459 C-5.85966017 328.32620252 -6.71539388 331.71181033 -7.56008911 335.10033607 C-8.48412291 338.79806845 -9.4237904 342.4914942 -10.3671875 346.18432617 C-10.63098709 347.25670973 -10.89478668 348.32909328 -11.1665802 349.43397331 C-14.1553091 360.98544821 -19.3572802 370.90063943 -29.6875 377.3125 C-35.63440599 380.79105879 -40.79549581 382.25235166 -47.70263672 382.22705078 C-48.71344551 382.22748886 -48.71344551 382.22748886 -49.74467468 382.22793579 C-51.95231404 382.22655235 -54.15960775 382.21103834 -56.3671875 382.1953125 C-57.90560726 382.19157885 -59.4440294 382.18873354 -60.98245239 382.18673706 C-65.0167913 382.17912829 -69.05098448 382.15950372 -73.08526611 382.1373291 C-77.2078657 382.11681108 -81.33048899 382.10772264 -85.453125 382.09765625 C-93.53131661 382.07625501 -101.60939014 382.04215264 -109.6875 382 C-109.00085398 374.86832979 -107.35531449 368.09612801 -105.61279297 361.15527344 C-105.29047573 359.85724721 -104.96856616 358.55911969 -104.64702702 357.2609005 C-103.76607902 353.70915284 -102.87932986 350.15887596 -101.99157596 346.60882425 C-101.03454498 342.777472 -100.08287444 338.94478811 -99.13050842 335.11227417 C-97.26513634 327.60933436 -95.3947224 320.10766017 -93.52259105 312.60640442 C-91.99595816 306.48894028 -90.47140266 300.37096173 -88.94827271 294.25262451 C-88.6222805 292.94313219 -88.6222805 292.94313219 -88.28970259 291.60718548 C-87.84820824 289.83368896 -87.40671798 288.06019141 -86.96523178 286.28669286 C-81.90981683 265.97992383 -76.84450633 245.67562812 -71.77689463 225.37189996 C-70.16704271 218.92182121 -68.55764866 212.47162835 -66.94854736 206.0213623 C-61.25910268 183.2147689 -55.56643362 160.40898333 -49.86899567 137.60438538 C-49.04558448 134.30858384 -48.22227756 131.01275628 -47.39907074 127.71690369 C-42.01562641 106.16362415 -36.62268574 84.61276025 -31.2071104 63.06752968 C-30.68353166 60.98420999 -30.16021023 58.90082579 -29.63694 56.81742859 C-27.63587348 48.85147014 -25.62921827 40.88696152 -23.61435127 32.92448044 C-23.00572403 30.51683518 -22.39861711 28.10880502 -21.79313469 25.70036697 C-20.97143599 22.43370276 -20.1439135 19.16857133 -19.31469727 15.90380859 C-19.07581598 14.9491206 -18.8369347 13.9944326 -18.59081459 13.01081467 C-18.3678137 12.13812565 -18.14481281 11.26543663 -17.91505432 10.36630249 C-17.72489022 9.61415152 -17.53472612 8.86200054 -17.33879948 8.08705711 C-16.15557047 4.29545801 -15.35638255 2.42565253 -11.9375 0.25 C-7.46249577 -1.47115547 -4.50560904 -1.67650569 0 0 Z " fill="#A85101" transform="translate(1475.6875,258)"/>
<path d="M0 0 C13.54258483 10.983943 23.18075307 25.21113863 26.03076172 42.59619141 C27.88367251 60.61060189 23.99496208 77.98095303 12.70654297 92.36181641 C3.638059 103.12390519 -7.96506529 111.01746192 -21.59423828 114.78369141 C-22.36638672 115.00669922 -23.13853516 115.22970703 -23.93408203 115.45947266 C-40.24325643 119.44857189 -57.55064735 116.69945172 -72.20751953 108.85400391 C-87.93155202 99.24185025 -98.6143076 85.43706327 -103.40673828 67.65869141 C-106.77464688 51.30304334 -105.03029362 33.86163715 -96.34814453 19.36962891 C-85.6571279 3.60692733 -71.17219831 -8.07668392 -52.12939453 -11.77880859 C-33.66099555 -14.06440051 -15.18850645 -11.5879233 0 0 Z " fill="#141313" transform="translate(2944.59423828125,36.21630859375)"/>
<path d="M0 0 C32.01 0 64.02 0 97 0 C97 0.33 97 0.66 97 1 C64.99 1 32.98 1 0 1 C0 0.67 0 0.34 0 0 Z " fill="#141313" transform="translate(1880,809)"/>
</svg>
